HIERARCHY
ROOT hip
{
  OFFSET 0 0 0
  CHANNELS 6 Xposition Yposition Zposition Zrotation Yrotation Xrotation
  JOINT abdomen
  {
    OFFSET 0 20.6881 -0.73152
    CHANNELS 3 Zrotation Xrotation Yrotation
    JOINT chest
    {
      OFFSET 0 11.7043 -0.48768
      CHANNELS 3 Zrotation Xrotation Yrotation
      JOINT neck
      {
        OFFSET 0 22.1894 -2.19456
        CHANNELS 3 Zrotation Xrotation Yrotation
        JOINT head
        {
          OFFSET -0.24384 7.07133 1.2192
          CHANNELS 3 Zrotation Xrotation Yrotation
          JOINT leftEye
          {
            OFFSET 4.14528 8.04674 8.04672
            CHANNELS 3 Zrotation Xrotation Yrotation
            End Site
            {
              OFFSET 1 0 0
            }
          }
          JOINT rightEye
          {
            OFFSET -3.6576 8.04674 8.04672
            CHANNELS 3 Zrotation Xrotation Yrotation
            End Site
            {
              OFFSET 1 0 0
            }
          }
        }
      }
      JOINT rCollar
      {
        OFFSET -2.68224 19.2634 -4.8768
        CHANNELS 3 Zrotation Xrotation Yrotation
        JOINT rShldr
        {
          OFFSET -8.77824 -1.95073 1.46304
          CHANNELS 3 Zrotation Xrotation Yrotation
          JOINT rForeArm
          {
            OFFSET -28.1742 -1.7115 0.48768
            CHANNELS 3 Zrotation Xrotation Yrotation
            JOINT rHand
            {
              OFFSET -22.5879 0.773209 7.07136
              CHANNELS 3 Zrotation Xrotation Yrotation
              JOINT rThumb1
              {
                OFFSET -1.2192 -0.487915 3.41376
                CHANNELS 3 Zrotation Xrotation Yrotation
                JOINT rThumb2
                {
                  OFFSET -3.37035 -0.52449 3.41376
                  CHANNELS 3 Zrotation Xrotation Yrotation
                  End Site
                  {
                    OFFSET -1.78271 -1.18214 1.43049
                  }
                }
              }
              JOINT rIndex1
              {
                OFFSET -7.75947 0.938293 5.60832
                CHANNELS 3 Zrotation Xrotation Yrotation
                JOINT rIndex2
                {
                  OFFSET -2.54057 -0.884171 1.56538
                  CHANNELS 3 Zrotation Xrotation Yrotation
                  End Site
                  {
                    OFFSET -1.62519 -0.234802 1.16502
                  }
                }
              }
              JOINT rMid1
              {
                OFFSET -8.24714 1.18213 3.41376
                CHANNELS 3 Zrotation Xrotation Yrotation
                JOINT rMid2
                {
                  OFFSET -3.10165 -0.590103 1.0647
                  CHANNELS 3 Zrotation Xrotation Yrotation
                  End Site
                  {
                    OFFSET -2.48547 -0.328903 0.83742
                  }
                }
              }
              JOINT rRing1
              {
                OFFSET -8.82822 0.546677 1.51678
                CHANNELS 3 Zrotation Xrotation Yrotation
                JOINT rRing2
                {
                  OFFSET -2.60934 -0.819778 -0.0198488
                  CHANNELS 3 Zrotation Xrotation Yrotation
                  End Site
                  {
                    OFFSET -2.33842 -0.294052 0.168128
                  }
                }
              }
              JOINT rPinky1
              {
                OFFSET -8.27202 -0.0477905 -0.4584
                CHANNELS 3 Zrotation Xrotation Yrotation
                JOINT rPinky2
                {
                  OFFSET -1.82734 -0.647385 -0.700984
                  CHANNELS 3 Zrotation Xrotation Yrotation
                  End Site
                  {
                    OFFSET -1.69225 -0.51767 -0.607171
                  }
                }
              }
            }
          }
        }
      }
      JOINT lCollar
      {
        OFFSET 2.68224 19.2634 -4.8768
        CHANNELS 3 Zrotation Xrotation Yrotation
        JOINT lShldr
        {
          OFFSET 8.77824 -1.95073 1.46304
          CHANNELS 3 Zrotation Xrotation Yrotation
          JOINT lForeArm
          {
            OFFSET 28.1742 -1.7115 0.48768
            CHANNELS 3 Zrotation Xrotation Yrotation
            JOINT lHand
            {
              OFFSET 22.5879 0.773209 7.07136
              CHANNELS 3 Zrotation Xrotation Yrotation
              JOINT lThumb1
              {
                OFFSET 1.2192 -0.487915 3.41376
                CHANNELS 3 Zrotation Xrotation Yrotation
                JOINT lThumb2
                {
                  OFFSET 3.37035 -0.52449 3.41376
                  CHANNELS 3 Zrotation Xrotation Yrotation
                  End Site
                  {
                    OFFSET 1.78271 -1.18214 1.43049
                  }
                }
              }
              JOINT lIndex1
              {
                OFFSET 7.75947 0.938293 5.60832
                CHANNELS 3 Zrotation Xrotation Yrotation
                JOINT lIndex2
                {
                  OFFSET 2.54057 -0.884171 1.56538
                  CHANNELS 3 Zrotation Xrotation Yrotation
                  End Site
                  {
                    OFFSET 1.62519 -0.234802 1.16502
                  }
                }
              }
              JOINT lMid1
              {
                OFFSET 8.24714 1.18213 3.41376
                CHANNELS 3 Zrotation Xrotation Yrotation
                JOINT lMid2
                {
                  OFFSET 3.10165 -0.590103 1.0647
                  CHANNELS 3 Zrotation Xrotation Yrotation
                  End Site
                  {
                    OFFSET 2.48547 -0.328903 0.83742
                  }
                }
              }
              JOINT lRing1
              {
                OFFSET 8.82822 0.546677 1.51678
                CHANNELS 3 Zrotation Xrotation Yrotation
                JOINT lRing2
                {
                  OFFSET 2.60934 -0.819778 -0.0198488
                  CHANNELS 3 Zrotation Xrotation Yrotation
                  End Site
                  {
                    OFFSET 2.33842 -0.294052 0.168128
                  }
                }
              }
              JOINT lPinky1
              {
                OFFSET 8.27202 -0.0477905 -0.4584
                CHANNELS 3 Zrotation Xrotation Yrotation
                JOINT lPinky2
                {
                  OFFSET 1.82734 -0.647385 -0.700984
                  CHANNELS 3 Zrotation Xrotation Yrotation
                  End Site
                  {
                    OFFSET 1.69225 -0.51767 -0.607171
                  }
                }
              }
            }
          }
        }
      }
    }
  }
  JOINT rButtock
  {
    OFFSET -8.77824 4.35084 1.2192
    CHANNELS 3 Zrotation Xrotation Yrotation
    JOINT rThigh
    {
      OFFSET 0 -1.70687 -2.19456
      CHANNELS 3 Zrotation Xrotation Yrotation
      JOINT rShin
      {
        OFFSET 0 -36.8199 0.73152
        CHANNELS 3 Zrotation Xrotation Yrotation
        JOINT rFoot
        {
          OFFSET 0.73152 -45.1104 -5.12064
          CHANNELS 3 Zrotation Xrotation Yrotation
          End Site
          {
            OFFSET -1.1221 -3.69964 12.103
          }
        }
      }
    }
  }
  JOINT lButtock
  {
    OFFSET 8.77824 4.35084 1.2192
    CHANNELS 3 Zrotation Xrotation Yrotation
    JOINT lThigh
    {
      OFFSET 0 -1.70687 -2.19456
      CHANNELS 3 Zrotation Xrotation Yrotation
      JOINT lShin
      {
        OFFSET 0 -36.8199 0.73152
        CHANNELS 3 Zrotation Xrotation Yrotation
        JOINT lFoot
        {
          OFFSET -0.73152 -45.1104 -5.12064
          CHANNELS 3 Zrotation Xrotation Yrotation
          End Site
          {
            OFFSET 1.1221 -3.69964 12.103
          }
        }
      }
    }
  }
}
MOTION
Frames:	6
Frame Time:	0.00833333
12.3043 71.6826 -25.7337 3.0857 -1.7117 40.7933 -2.26744 57.7068 20.3687 2.04189 -1.87656 4.79173 -4.1632 4.0727 -9.42421 -13.3577 -22.1926 -21.04 -0.0 0.0 0.0 -0.0 0.0 0.0 1.95357e-13 4.01649e-13 -3.69529e-13 29.5122 -29.4444 67.3205 -11.0461 -4.80148 19.7791 -0.00209486 1.98137 0.278438 3.01771e-09 -1.50171e-09 -6.27387e-10 5.20636e-09 -2.58377e-09 -1.09126e-09 3.01772e-09 -1.50171e-09 -6.2739e-10 7.73091 5.47488 0.417314 3.01771e-09 -1.50171e-09 -6.27386e-10 2.90554 0.965183 0.102902 3.01771e-09 -1.50171e-09 -6.27391e-10 10.2786 0.731801 0.0259123 3.01771e-09 -1.50171e-09 -6.27389e-10 2.22167 -0.733487 -0.20892 1.95264e-13 4.01665e-13 -3.69784e-13 7.91318 47.9078 -74.0931 28.0938 -31.2057 -69.1802 0.81512 24.748 -3.71444 -2.22602e-09 5.34973e-10 -6.89144e-10 -3.85328e-09 9.20361e-10 -1.14692e-09 -2.22602e-09 5.34974e-10 -6.89143e-10 -7.73091 5.47488 -0.417314 -2.22602e-09 5.34963e-10 -6.8915e-10 -2.90554 0.965183 -0.102902 -2.22602e-09 5.34974e-10 -6.8915e-10 -10.2786 0.731801 -0.0259123 -2.22601e-09 5.34973e-10 -6.8916e-10 -2.22167 -0.733487 0.20892 -2.03217e-16 0.0 -3.88251e-19 -75.0776 -67.2473 -82.4424 -1.21303 62.2589 1.69405 0.17231 -13.6667 0.117085 2.03217e-16 0.0 3.88251e-19 93.3158 -86.6277 104.654 0.585719 50.4204 -1.04849 -1.43573 0.781549 -20.8593
12.5376 72.0536 -24.4056 1.707 -4.755 39.5825 -10.0391 59.3608 27.7367 1.84751 -1.91728 5.37019 -4.11867 4.21985 -9.52893 -13.5047 -22.568 -21.3771 -0.0 0.0 0.0 -0.0 0.0 0.0 2.72409e-13 6.19805e-13 -2.15389e-13 30.5145 -30.417 67.9536 -10.9745 -4.7547 19.6427 -0.00797905 3.13409 0.440682 3.71419e-09 -1.17849e-09 -2.40536e-09 6.3997e-09 -2.01608e-09 -4.169e-09 3.7142e-09 -1.17848e-09 -2.40537e-09 7.73091 5.47488 0.417314 3.71419e-09 -1.17849e-09 -2.40535e-09 2.90554 0.965183 0.102902 3.71419e-09 -1.17849e-09 -2.40536e-09 10.2786 0.731801 0.0259123 3.71419e-09 -1.17849e-09 -2.40536e-09 2.22167 -0.733487 -0.20892 2.72276e-13 6.19816e-13 -2.15644e-13 7.95177 48.0 -74.0039 28.1218 -31.3972 -69.4867 0.829819 24.9527 -3.74945 -4.06141e-09 -4.49173e-10 2.93186e-10 -7.00655e-09 -7.86151e-10 5.80523e-10 -4.06141e-09 -4.49171e-10 2.93185e-10 -7.73091 5.47488 -0.417314 -4.06141e-09 -4.49179e-10 2.93179e-10 -2.90554 0.965183 -0.102902 -4.06142e-09 -4.49172e-10 2.93179e-10 -10.2786 0.731801 -0.0259123 -4.06141e-09 -4.49173e-10 2.9317e-10 -2.22167 -0.733487 0.20892 -2.03217e-16 0.0 -3.88251e-19 -67.0541 -68.8938 -73.5335 -1.09735 60.4904 1.52371 0.711441 -13.4991 1.83886 2.03217e-16 0.0 3.88251e-19 68.4171 -83.4772 80.0905 0.60286 50.9857 -1.08111 -1.93395 -1.07066 -19.1845
12.7472 72.3107 -23.1577 0.5583 -8.0061 39.1629 -18.5906 60.4763 35.7035 1.65407 -1.96217 5.94319 -4.06401 4.36423 -9.62067 -13.6603 -22.9358 -21.6911 -0.0 0.0 0.0 -0.0 0.0 0.0 3.22626e-13 7.91844e-13 -4.03867e-14 31.5671 -31.3206 68.6273 -10.9119 -4.71423 19.5234 -0.0199724 4.29439 0.604513 3.97117e-09 -6.72361e-10 -3.97852e-09 6.83467e-09 -1.13367e-09 -6.89187e-09 3.97118e-09 -6.72358e-10 -3.97853e-09 7.73091 5.47488 0.417314 3.97117e-09 -6.72364e-10 -3.97851e-09 2.90554 0.965183 0.102902 3.97117e-09 -6.72363e-10 -3.97852e-09 10.2786 0.731801 0.0259123 3.97117e-09 -6.72363e-10 -3.97851e-09 2.22167 -0.733487 -0.20892 3.2245e-13 7.91848e-13 -4.06375e-14 7.99651 48.0942 -73.902 28.147 -31.5757 -69.771 0.845394 25.1665 -3.78615 -5.45938e-09 -1.39653e-09 1.23055e-09 -9.40536e-09 -2.42829e-09 2.22219e-09 -5.45939e-09 -1.39653e-09 1.23055e-09 -7.73091 5.47488 -0.417314 -5.45938e-09 -1.39653e-09 1.23054e-09 -2.90554 0.965183 -0.102902 -5.45939e-09 -1.39653e-09 1.23054e-09 -10.2786 0.731801 -0.0259123 -5.45938e-09 -1.39653e-09 1.23053e-09 -2.22167 -0.733487 0.20892 -2.03217e-16 0.0 -3.88251e-19 -57.7445 -69.9134 -63.2143 -1.00102 58.7053 1.37126 1.23679 -13.3237 3.54788 2.03217e-16 0.0 3.88251e-19 60.0501 -79.9144 72.1598 0.620526 51.5376 -1.11385 -2.32139 -2.9575 -17.5246
12.9456 72.5734 -21.7859 -0.6411 -11.974 39.2402 -24.7838 60.9306 41.4481 1.52012 -1.98054 6.34037 -4.01116 4.50339 -9.69753 -13.7963 -23.3159 -21.9731 -0.0 0.0 0.0 -0.0 0.0 0.0 3.19755e-13 8.66701e-13 6.7885e-14 32.3816 -32.1147 69.2164 -10.8485 -4.6733 19.4028 -0.0332768 5.19986 0.732825 3.94209e-09 -3.03145e-10 -4.74654e-09 6.78017e-09 -4.92022e-10 -8.22102e-09 3.94209e-09 -3.03142e-10 -4.74655e-09 7.73091 5.47488 0.417314 3.94209e-09 -3.0315e-10 -4.74653e-09 2.90554 0.965183 0.102902 3.94209e-09 -3.03148e-10 -4.74654e-09 10.2786 0.731801 0.0259123 3.94208e-09 -3.03148e-10 -4.74654e-09 2.22167 -0.733487 -0.20892 3.19557e-13 8.66701e-13 6.76365e-14 8.05801 48.1697 -73.8021 28.1698 -31.7448 -70.0429 0.860248 25.3679 -3.82087 -5.90248e-09 -1.82784e-09 1.63546e-09 -1.01643e-08 -3.17547e-09 2.92789e-09 -5.90249e-09 -1.82784e-09 1.63546e-09 -7.73091 5.47488 -0.417314 -5.90248e-09 -1.82784e-09 1.63545e-09 -2.90554 0.965183 -0.102902 -5.90249e-09 -1.82784e-09 1.63545e-09 -10.2786 0.731801 -0.0259123 -5.90248e-09 -1.82784e-09 1.63545e-09 -2.22167 -0.733487 0.20892 -2.03217e-16 0.0 -3.88251e-19 -51.1808 -70.1953 -55.9201 -0.9432 57.4491 1.275 1.59087 -13.1897 4.72046 2.03217e-16 0.0 3.88251e-19 57.5168 -77.4708 70.0833 0.637193 52.0096 -1.13966 -2.54473 -4.29306 -16.4653
13.1105 72.5252 -21.5858 -0.5553 -12.1468 39.5358 -27.0808 61.0792 43.6475 1.46964 -1.95908 6.49304 -3.96171 4.63382 -9.75457 -13.9042 -23.7267 -22.2143 -0.0 0.0 0.0 -0.0 0.0 0.0 2.32882e-13 8.14452e-13 6.67047e-14 32.8784 -32.7944 69.6866 -10.7778 -4.62772 19.2684 -0.0424983 5.7794 0.815123 3.55696e-09 -1.50675e-10 -4.33681e-09 6.11735e-09 -2.30557e-10 -7.51183e-09 3.55697e-09 -1.50673e-10 -4.33683e-09 7.73091 5.47488 0.417314 3.55696e-09 -1.5068e-10 -4.3368e-09 2.90554 0.965183 0.102902 3.55696e-09 -1.50679e-10 -4.33681e-09 10.2786 0.731801 0.0259123 3.55696e-09 -1.50679e-10 -4.33681e-09 2.22167 -0.733487 -0.20892 2.32686e-13 8.14451e-13 6.64527e-14 8.14141 48.2156 -73.7015 28.1902 -31.9041 -70.3007 0.874793 25.5639 -3.85473 -4.90956e-09 -1.43104e-09 1.16494e-09 -8.4584e-09 -2.48701e-09 2.09702e-09 -4.90957e-09 -1.43103e-09 1.16494e-09 -7.73091 5.47488 -0.417314 -4.90957e-09 -1.43104e-09 1.16493e-09 -2.90554 0.965183 -0.102902 -4.90957e-09 -1.43104e-09 1.16493e-09 -10.2786 0.731801 -0.0259123 -4.90957e-09 -1.43104e-09 1.16493e-09 -2.22167 -0.733487 0.20892 -2.03217e-16 0.0 -3.88251e-19 -49.3244 -70.2348 -53.8583 -0.919343 56.9114 1.23857 1.72046 -13.1092 5.16371 2.03217e-16 0.0 3.88251e-19 57.9158 -76.6993 70.8623 0.651746 52.3756 -1.15527 -2.65995 -4.8374 -16.2261
13.2898 72.4545 -21.4519 -0.4178 -12.1454 39.8942 -27.0134 61.1677 43.7085 1.46824 -1.91602 6.49981 -3.91007 4.75783 -9.79425 -13.9982 -24.154 -22.4215 -0.0 0.0 0.0 -0.0 0.0 0.0 8.39786e-14 6.67768e-13 9.24348e-15 33.2013 -33.384 70.0856 -10.7062 -4.58188 19.1325 -0.0481669 6.17338 0.871095 2.77092e-09 -4.61995e-11 -3.14035e-09 4.76632e-09 -5.59098e-11 -5.4409e-09 2.77093e-09 -4.62005e-11 -3.14037e-09 7.73091 5.47488 0.417314 2.77092e-09 -4.6205e-11 -3.14034e-09 2.90554 0.965183 0.102902 2.77093e-09 -4.62048e-11 -3.14035e-09 10.2786 0.731801 0.0259123 2.77092e-09 -4.6204e-11 -3.14035e-09 2.22167 -0.733487 -0.20892 8.37981e-14 6.67766e-13 8.98569e-15 8.24039 48.2447 -73.5945 28.2088 -32.0528 -70.5398 0.889602 25.7616 -3.88899 -2.87099e-09 -5.23152e-10 1.49964e-10 -4.95616e-09 -9.12282e-10 3.07637e-10 -2.871e-09 -5.23148e-10 1.49981e-10 -7.73091 5.47488 -0.417314 -2.87099e-09 -5.23151e-10 1.49959e-10 -2.90554 0.965183 -0.102902 -2.871e-09 -5.23151e-10 1.4996e-10 -10.2786 0.731801 -0.0259123 -2.87099e-09 -5.23151e-10 1.49956e-10 -2.22167 -0.733487 0.20892 -2.03217e-16 0.0 -3.88251e-19 -50.2507 -70.2567 -54.9101 -0.911955 56.7867 1.23387 1.7192 -13.0625 5.17609 2.03217e-16 0.0 3.88251e-19 59.7716 -76.893 73.0319 0.664679 52.6736 -1.16443 -2.73119 -4.91176 -16.4639
